PathFileType	4	(X/Y/Z)	C:/Users/beibeiliu/ov580/test_trc/capture2\sequence.10_training_dense_right.trc
DataRate	CameraRate	NumFrames	NumMarkers	Units	OrigDataRate	OrigDataStartFrame	OrigNumFrames
120	120	20	19	mm	120	131	349
Frame#	Time	ThumbCMC			ThumbMCP			ThumbIP			ThumbTip			IndexMCP			IndexPIP			IndexTip			MiddleMCP			MiddlePIP			MiddleTip			RingMCP			RingPIP			RingTip			PinkyMCP			PinkyPIP			PinkyTip			BackHand1			BackHand2			BackHand3	
		X0	Y0	Z0	X1	Y1	Z1	X2	Y2	Z2	X3	Y3	Z3	X4	Y4	Z4	X5	Y5	Z5	X6	Y6	Z6	X7	Y7	Z7	X8	Y8	Z8	X9	Y9	Z9	X10	Y10	Z10	X11	Y11	Z11	X12	Y12	Z12	X13	Y13	Z13	X14	Y14	Z14	X15	Y15	Z15	X16	Y16	Z16	X17	Y17	Z17	X18	Y18	Z18	
130	1.08333	156.166	37.1186	-33.4762	125.62	50.344	-58.3279	108.655	42.6348	-79.7439	96.6288	24.6012	-92.2348	167.877	22.1348	-103.907	169.283	30.8037	-125.748	167.657	26.0071	-150.171	151.217	-3.7406	-109.457	148.797	-3.13055	-134.659	147.896	-6.80662	-158.106	130.036	-8.55951	-102.702	119.433	-4.19348	-125.041	108.75	1.13487	-149.094	110.817	-5.22212	-85.881	91.7764	14.3618	-83.0581	101.52	32.9418	-55.4029	151.21	-18.2759	-54.7892	153.371	-22.3282	-22.217	172.338	2.91088	-43.1345	
131	1.09167	156.384	36.2288	-35.9752	128.121	50.2132	-53.4739	108.83	46.0138	-80.4156	98.2364	28.8272	-93.8575	170.698	24.4574	-100.67	170.443	29.0959	-124.524	171.221	30.9095	-148.913	152.764	-1.7972	-104.432	149.916	-2.431	-134.906	147.557	-9.31503	-159.846	131.983	-9.24732	-100.098	122.512	-5.51693	-124.566	110.362	-0.436403	-149.45	112.491	-10.2013	-86.8222	94.2843	14.2629	-88.0931	96.2172	32.7245	-64.1465	150.907	-17.9001	-51.8233	156.091	-22.7689	-26.4088	173.173	1.66389	-44.9767	
132	1.1	159.039	41.0751	-31.2701	130.175	53.1859	-54.26	112.197	47.3124	-81.4581	101.757	26.6147	-91.6379	167.429	21.2487	-101.267	168.039	27.4461	-125.502	173.129	31.451	-152.931	156.692	1.01176	-104.987	150.731	-2.02416	-133.711	148.143	-6.15934	-156.606	133.869	-8.5822	-101.447	126.347	-5.82869	-122.917	116.716	0.97055	-149.505	115.626	-14.6776	-84.6522	96.8853	8.46882	-98.3049	95.1064	30.589	-81.6479	150.928	-20.6388	-51.4453	154.25	-23.004	-21.656	176.34	2.17517	-40.1145	
133	1.10833	160.093	41.6942	-31.331	131.019	48.7783	-57.1719	115.235	43.1963	-76.9254	103.531	21.8959	-88.2429	171.462	25.5167	-102.96	169.991	31.5009	-126.562	169.555	28.6761	-153.162	152.683	-0.658664	-107.062	152.182	2.61928	-129.5	148.217	-4.34804	-157.046	134.212	-9.61725	-99.7861	125.478	-8.58943	-123.271	116.629	-4.69814	-147.783	115.638	-18.7563	-86.8505	97.0071	-3.20256	-106.749	89.7688	20.9777	-106.076	149.303	-17.3643	-52.3167	157.925	-19.3401	-26.128	175.698	4.70831	-42.0014	
134	1.11667	159.426	37.7263	-31.1784	132.308	49.5313	-54.2807	113.781	42.9738	-81.2891	104.863	15.5805	-88.22	169.826	23.595	-102.131	171.918	33.5736	-123.662	171.868	33.3239	-151.628	156.496	3.1165	-107.144	151.643	2.59472	-131.866	148.785	-2.59177	-161.718	137.676	-6.85522	-100.911	129.17	-5.97277	-122.732	122.727	-0.344191	-152.461	119.697	-17.2911	-83.5422	105.101	-9.87907	-110.344	91.0002	4.7329	-124.912	152.313	-16.9002	-50.324	156.1	-19.153	-20.8458	174.342	1.04038	-39.9816	
135	1.125	160.808	39.9792	-33.0583	132.847	52.8159	-56.8223	115.204	40.7673	-81.3843	108.336	13.2268	-83.2196	171.816	27.9886	-99.9265	168.763	32.1976	-124.402	169.66	32.5613	-148.901	154.081	3.32285	-108.899	151.41	4.25605	-131.491	150.706	1.5099	-156.086	136.711	-5.12732	-103.979	129.352	-3.65185	-126.399	123.085	-2.31835	-147.849	118.552	-15.0011	-85.1807	104.872	-14.2982	-110.197	93.5213	-9.93927	-130.623	148.782	-15.6248	-54.0625	157.514	-20.1293	-22.2927	173.441	4.03316	-44.0491	
136	1.13333	160.31	40.5859	-29.6384	134.159	48.8534	-55.6467	117.951	36.9482	-76.6403	110.475	10.8261	-80.1563	167.93	25.5857	-100.133	170.979	37.0179	-122.106	169.3	36.2677	-150.262	153.221	5.44903	-107.633	152.519	8.78438	-128.774	149.924	4.41299	-155.822	134.762	-6.20198	-100.096	128.348	-3.83051	-122.845	124.545	-2.87592	-149.935	118.412	-15.0481	-85.7657	105.061	-15.1427	-107.769	99.1626	-16.4263	-130.042	149.185	-16.3817	-54.6455	153.287	-20.7505	-21.8932	173.945	2.6458	-43.7421	
137	1.14167	159.443	42.1392	-29.3787	133.681	49.7645	-56.9264	117.833	36.2536	-80.5893	110.951	11.3103	-77.3273	168.752	29.6362	-103.132	169.136	39.3304	-122.871	171.179	40.457	-146.691	153.25	8.36329	-107.216	153.466	11.7328	-133.85	152.031	10.0246	-157.504	135.267	-4.74365	-103.176	130.669	-1.48506	-126.72	126.806	0.232148	-151.551	117.249	-13.6974	-88.8827	107.167	-15.9847	-105.857	97.1955	-24.529	-127.331	147.174	-17.795	-52.5135	158.007	-18.1313	-25.3239	174.847	6.88091	-43.8611	
138	1.15	159.281	42.5059	-29.5111	133.89	52.2035	-55.9827	117.536	37.5995	-79.6024	109.043	8.59185	-80.0558	167.509	30.3548	-102.544	169.587	40.983	-124.785	168.85	41.0581	-147.02	153.985	9.9364	-108.116	151.552	14.034	-133.877	148.644	9.99848	-155.328	134.817	-2.26126	-99.1277	128.027	-2.66352	-125.32	127.029	1.49963	-149.887	116.639	-13.6301	-87.5663	107.394	-15.543	-104.828	101.06	-27.2249	-124.723	149.723	-14.4024	-55.0357	154.711	-20.0253	-25.7375	172.961	6.33802	-40.1832	
139	1.15833	158.026	40.1404	-27.7343	135.196	49.6726	-54.755	118.295	38.9196	-78.239	111.975	12.6985	-75.2926	170.59	34.6123	-100.22	169.897	43.722	-124.441	169.374	45.0402	-145.149	154.996	12.1621	-106.423	151.375	15.3197	-132.948	148.935	12.5087	-156.412	136.321	1.23852	-98.839	128.904	-0.08139	-121.66	125.517	1.2867	-150.59	114.377	-14.3617	-86.233	108.101	-14.7371	-101.549	102.757	-27.2859	-122.782	149.436	-11.9903	-54.0909	156.022	-18.9705	-24.4844	172.742	6.01034	-40.5841	
140	1.16667	158.948	40.9688	-29.7859	134.887	55.4083	-55.2348	119.405	42.0283	-75.1546	112.819	12.6944	-76.0738	168.862	34.9086	-97.2714	166.775	42.3467	-125.274	169.97	47.4749	-147.231	154.839	13.8199	-103.286	152.752	18.0861	-131.406	149.791	13.7964	-156.375	134.197	-1.82465	-100.656	130.815	2.36245	-122.691	124.893	0.635657	-150.236	116.532	-12.7533	-82.0273	108.816	-14.7204	-100.192	104.094	-27.6014	-124.743	146.002	-13.8377	-50.0654	154.607	-16.5875	-25.5165	174.953	9.85692	-40.8359	
141	1.175	159.428	44.8371	-26.3387	134.427	52.0723	-55.4468	119.254	40.5314	-79.255	112.653	13.4473	-75.1005	169.549	37.3859	-100.807	165.614	41.5801	-123.03	165.877	45.2023	-147.108	152.062	12.6359	-103.988	152.645	19.9342	-129.864	150.566	17.2337	-155.4	136.823	2.91595	-101.93	128.922	1.58281	-124.538	127.562	3.41695	-146.147	115.016	-14.9323	-81.3959	106.487	-17.2662	-103.614	101.169	-28.9162	-120.123	150.115	-10.4829	-53.5496	155.101	-19.1331	-23.2034	171.778	6.92488	-41.1055	
142	1.18333	159.049	44.7242	-31.649	134.237	55.4812	-56.405	119.216	39.3681	-79.6485	112.339	14.0974	-76.4499	167.368	34.9191	-100.807	166.776	44.4174	-122.273	167.993	46.9063	-146.322	153.123	14.0768	-106.955	149.448	17.3132	-128.936	150.024	18.3703	-160.44	135.413	0.924922	-103.741	131.609	3.30096	-121.107	126.747	2.52788	-151.304	115.54	-14.2089	-84.0751	108.544	-15.9793	-101.567	101.823	-32.4105	-119.815	149.277	-10.2932	-49.8378	153.893	-19.3781	-27.4641	175.319	9.23018	-42.5753	
143	1.19167	158.273	41.7857	-31.9	134.475	54.736	-54.9893	118.329	39.1373	-80.2463	112.932	9.27521	-77.6838	167.776	35.6809	-98.3331	167.534	45.7336	-125.394	165.917	45.2674	-148.851	153.379	14.1285	-104.892	150.315	17.8674	-129.611	151.763	20.6128	-159.668	136.079	0.815634	-98.352	128.645	0.59112	-126.92	127.317	2.51628	-149.003	115.539	-14.1355	-81.3869	105.854	-17.6294	-99.8866	104.977	-29.1268	-121.727	150.646	-10.8046	-55.5741	155.518	-15.9171	-21.8128	171.875	9.78741	-42.1693	
144	1.2	157.722	42.7297	-26.0982	133.003	55.1975	-55.4051	119.442	38.8444	-77.0081	111.713	12.4013	-78.9553	168.373	36.7967	-101.391	165.911	43.2671	-126.156	168.522	49.0622	-146.241	155.03	17.6278	-103.171	151.476	20.7696	-131.228	152.683	22.3117	-156.801	135.977	1.24273	-101.798	129.264	1.34262	-121.585	126.722	1.52816	-150.77	114.561	-15.7085	-83.0127	106.524	-18.748	-104.831	103.746	-27.8854	-119.217	147.804	-9.47212	-54.9544	156.474	-15.8294	-21.5758	173.657	8.66545	-43.2994	
145	1.20833	156.831	42.9457	-27.6574	133.612	52.3047	-56.0652	118.372	40.1018	-77.8922	112.616	11.582	-78.6283	166.168	35.2031	-101.786	166.892	43.5099	-122.692	167.966	49.1403	-147.39	154.897	15.6396	-103.48	152.821	20.6377	-129.276	151.687	21.4122	-156.563	137.072	1.65962	-100.9	131.191	2.31191	-124.78	125.957	1.79044	-149.951	116.166	-13.284	-83.3579	106.576	-16.7973	-101.657	99.3998	-31.3017	-119.002	146.608	-12.8742	-51.0715	154.831	-15.8766	-23.1501	171.718	7.24141	-41.2986	
146	1.21667	156.682	43.5063	-31.55	133.785	53.0344	-53.8668	119.567	37.6667	-78.615	112.512	13.8206	-77.5858	169.075	38.1282	-102.505	167.525	45.7687	-120.886	164.776	47.6169	-150.496	154.187	16.6086	-104.484	152.077	20.4861	-131.313	151.63	22.0676	-161.072	135.07	1.43052	-99.4954	129.794	2.82215	-125.469	126.785	2.58585	-149.113	113.724	-14.4788	-87.2596	104.612	-16.3989	-105.374	98.8362	-25.6756	-125.225	150.334	-10.1942	-55.273	152.512	-14.9753	-24.8621	171.176	9.85096	-39.2278	
147	1.225	156.552	45.795	-30.9158	132.546	54.0447	-54.6467	119.459	39.1799	-77.205	113.567	13.3142	-76.9241	165.693	35.1405	-100.503	165.723	43.658	-124.214	164.331	48.782	-150.709	152.723	14.5035	-107.736	152.945	21.2789	-133.937	153.254	25.0009	-161.079	135.795	3.16973	-100.752	129.719	2.68204	-123.713	126.676	3.12819	-149.587	115.914	-10.3645	-84.7329	102.692	-14.7926	-102.583	95.6014	-26.1965	-121.611	149.447	-9.8011	-52.4699	153.512	-12.6165	-26.5204	170.104	9.5457	-38.9455	
148	1.23333	156.283	44.3388	-30.1351	132.65	54.7957	-57.4333	119.186	38.6933	-81.2231	112.229	13.3938	-80.3146	168.019	37.44	-102.398	165.092	45.0639	-127.285	166.229	50.9671	-150.971	154.054	16.961	-107.611	151.227	19.363	-129.732	150.228	21.9881	-160.653	136.813	3.89586	-103.102	129.655	1.899	-123.948	126.782	5.75716	-149.81	113.609	-12.2708	-88.5166	99.1264	-15.5097	-105.102	90.3913	-21.0225	-126.809	147.077	-9.66985	-54.5972	154.509	-13.3076	-24.7881	171.5	8.32279	-39.9931	
149	1.24167	156.506	46.7722	-28.864	133.601	55.1722	-53.5754	118.379	40.5914	-81.4105	112.674	12.8722	-77.7025	165.712	34.3745	-100.752	163.867	42.7487	-122.95	163.464	45.7415	-147.37	154.07	16.4952	-104.646	151.028	20.7838	-130.032	149.614	20.479	-159.795	136.695	4.03588	-101.489	129.454	3.69047	-122.742	124.934	4.03217	-152.908	112.531	-10.5644	-89.0515	99.253	-12.5731	-105.528	87.8058	-17.0492	-126.686	149.343	-9.88784	-53.0097	153.419	-15.6483	-24.7723	173.078	12.217	-41.4165	
